<?xml version="1.0" encoding="UTF-8" standalone="no"?>
<!-- Uploaded to: SVG Repo, www.svgrepo.com, Generator: SVG Repo Mixer Tools -->

<svg
   width="800px"
   height="800px"
   viewBox="0 0 24 24"
   fill="none"
   version="1.1"
   id="svg2"
   sodipodi:docname="fullscreen-exit-svgrepo-com.svg"
   inkscape:export-filename="fullscreen-exit-svgrepo-com.png"
   inkscape:export-xdpi="30.719999"
   inkscape:export-ydpi="30.719999"
   inkscape:version="1.4.4 (1:1.4.4+202605061432+dcaf3e7d9e)"
   xmlns:inkscape="http://www.inkscape.org/namespaces/inkscape"
   xmlns:sodipodi="http://sodipodi.sourceforge.net/DTD/sodipodi-0.dtd"
   xmlns="http://www.w3.org/2000/svg"
   xmlns:svg="http://www.w3.org/2000/svg">
  <defs
     id="defs2" />
  <sodipodi:namedview
     id="namedview2"
     pagecolor="#ffffff"
     bordercolor="#666666"
     borderopacity="1.0"
     inkscape:showpageshadow="2"
     inkscape:pageopacity="0.0"
     inkscape:pagecheckerboard="0"
     inkscape:deskcolor="#d1d1d1"
     inkscape:zoom="1.00875"
     inkscape:cx="399.50434"
     inkscape:cy="400"
     inkscape:window-width="1850"
     inkscape:window-height="1016"
     inkscape:window-x="70"
     inkscape:window-y="27"
     inkscape:window-maximized="1"
     inkscape:current-layer="svg2" />
  <path
     d="M20.04 10.1109L18.0252 8.09612L21.7071 4.41421C22.0976 4.02369 22.0976 3.39052 21.7071 3L21 2.29289C20.6095 1.90237 19.9763 1.90237 19.5858 2.29289L15.9039 5.9748L14.04 4.11089C13.754 3.82489 13.3239 3.73933 12.9502 3.89411C12.5765 4.04889 12.3329 4.41353 12.3329 4.81799V10.818C12.3329 11.3703 12.7806 11.818 13.3329 11.818H19.3329C19.7373 11.818 20.102 11.5744 20.2568 11.2007C20.4115 10.827 20.326 10.3969 20.04 10.1109Z"
     fill="#000000"
     id="path1" />
  <path
     d="M3.96 13.8891L5.97478 15.9039L2.29289 19.5858C1.90237 19.9763 1.90237 20.6095 2.29289 21L3 21.7071C3.39052 22.0976 4.02369 22.0976 4.41421 21.7071L8.0961 18.0252L9.96 19.8891C10.246 20.1751 10.6761 20.2607 11.0498 20.1059C11.4235 19.9511 11.6671 19.5865 11.6671 19.182V13.182C11.6671 12.6297 11.2194 12.182 10.6671 12.182H4.66711C4.26265 12.182 3.89801 12.4256 3.74323 12.7993C3.58845 13.173 3.674 13.6031 3.96 13.8891Z"
     fill="#000000"
     id="path2" />
</svg>
